PathFileType	4	(X/Y/Z)	C:\Users\WrightLab\Desktop\Jo\P5V45.trc
DataRate	CameraRate	NumFrames	NumMarkers	Units	OrigDataRate	OrigDataStartFrame	OrigNumFrames
100.00	100.00	       14	19	mm	100.00	211	       840
Frame#	Time	Headset_Front			Headset_Back			Headset_Left			Headset_Right			Left_Shoulder			Right_Shoulder			Sternum			C7			Left Elbow			Right Elbow			Left Wrist			Right Wrist			Left ASIS			Right ASIS			S2			Left Knee			Right Knee			Left Ankle			Right Ankle			
		X1	Y1	Z1	X2	Y2	Z2	X3	Y3	Z3	X4	Y4	Z4	X5	Y5	Z5	X6	Y6	Z6	X7	Y7	Z7	X8	Y8	Z8	X9	Y9	Z9	X10	Y10	Z10	X11	Y11	Z11	X12	Y12	Z12	X13	Y13	Z13	X14	Y14	Z14	X15	Y15	Z15	X16	Y16	Z16	X17	Y17	Z17	X18	Y18	Z18	X19	Y19	Z19	

211	2.100	-375.51309	1477.32556	-935.57507	-287.24951	1690.74792	-988.22076																						-454.20523	1149.86523	-932.08325	28.22373	970.44763	-1145.76990	-381.43802	1020.26941	-718.43518	-39.02397	922.09839	-1137.13354	-330.28900	897.40387	-1064.77185				-2.22483	478.91476	-1194.48694	-380.89063	468.35681	-1182.43164							
212	2.110	-378.07556	1477.77295	-936.06848	-289.52835	1690.84851	-989.11023																						-458.43607	1147.97693	-935.73273	26.05392	969.49811	-1143.03271	-386.59210	1019.91425	-722.48523	-41.25847	921.57904	-1136.89661	-332.36447	897.15778	-1065.85999				-4.13376	478.50815	-1192.40820	-382.62851	467.92047	-1183.92310							
213	2.120	-380.84460	1477.96838	-937.09924	-291.67099	1691.13281	-989.44482																						-462.93219	1146.59521	-939.55939	24.63571	969.57971	-1140.62000	-390.84494	1019.06659	-725.83130	-43.58832	922.19189	-1134.65039	-334.27808	896.88696	-1065.64575				-7.06701	479.05399	-1190.36023	-384.20303	468.14481	-1184.40894							
214	2.130	-383.51630	1478.62878	-938.01874	-293.94788	1691.24658	-989.95026																						-467.05261	1144.71863	-944.03821	22.64979	968.29657	-1136.52222	-395.03967	1018.28204	-730.14886	-45.60192	920.78296	-1132.84631	-337.78809	896.14514	-1066.64001				-8.28749	478.32294	-1188.72656	-385.66522	468.08563	-1184.12024							
215	2.140	-386.35645	1479.04077	-939.40509	-296.09818	1691.61438	-990.51385																						-473.56570	1144.82642	-948.04285	21.59699	965.27277	-1143.66101	-400.40451	1017.81543	-735.33026	-48.73963	920.35333	-1131.83411	-338.90717	895.73254	-1067.01685				-11.54863	477.90598	-1186.76135	-386.56454	467.36353	-1184.39233							
216	2.150	-389.26141	1479.20325	-940.32397	-298.38382	1691.76868	-991.28973				-270.36990	1398.87695	-883.07733																-475.99667	1142.88794	-953.31671	18.78063	966.65784	-1136.26233	-404.39655	1017.86755	-738.25494	-50.11938	920.25232	-1127.46826	-340.47586	895.42792	-1067.19482				-13.33486	478.22446	-1185.28674	-388.22330	467.77829	-1184.09619							
217	2.160	-391.96494	1479.94641	-940.79034	-300.62753	1692.28906	-992.19153				-269.63992	1399.74036	-881.40857																-480.84512	1141.91077	-957.83905	16.37372	966.24689	-1134.04688	-408.91794	1017.82355	-743.58228	-52.50785	919.59875	-1125.94446	-345.17017	895.62140	-1069.20972				-15.96899	477.78610	-1182.69385	-389.45697	467.74054	-1184.49805							
218	2.170	-394.82056	1480.53027	-941.93713	-303.00732	1692.65295	-993.11206				-270.62927	1399.49829	-878.82648																-484.24164	1140.23022	-962.12909	13.93378	966.19824	-1129.61182	-413.10953	1017.45605	-747.43988	-55.30465	919.29102	-1124.57910	-344.98688	895.42188	-1069.80249				-18.99570	477.87677	-1180.99011	-391.82712	467.64819	-1185.79468							
219	2.180	-397.65527	1481.20642	-942.56781	-305.41815	1692.92273	-993.97046				-273.18506	1397.83447	-877.54279																-488.43219	1139.09436	-967.80408	11.73428	965.39496	-1128.10876	-418.53876	1017.38464	-752.61914	-57.63473	918.68860	-1121.01636	-347.45303	895.08759	-1070.55103				-21.35237	477.16663	-1178.46765	-392.39615	467.09204	-1186.10278							
220	2.190	-400.71991	1481.50757	-944.04883	-307.79187	1693.38574	-994.53870				-290.11041	1398.25195	-888.53900																-492.87656	1137.68347	-973.06104	9.62836	965.02753	-1124.95471	-424.35104	1017.78284	-757.89050	-61.02783	917.86194	-1118.77966	-350.20016	895.05609	-1071.87573				-24.75338	477.03470	-1176.14978	-393.72839	466.65823	-1187.39978							
221	2.200	-403.68188	1482.15967	-945.08685	-310.26035	1693.62366	-995.06470				-293.48743	1398.91284	-889.12817																-497.49908	1136.31494	-978.15936	7.66920	964.81128	-1121.54199	-428.89594	1017.35474	-763.20435	-63.69109	917.22241	-1115.65503	-352.56451	895.02399	-1071.82861				-27.51665	476.74533	-1174.19470	-396.02377	466.77591	-1188.12415							
222	2.210	-406.56870	1483.13525	-945.83295	-312.75735	1694.07361	-996.25665				-296.11636	1399.26147	-888.39594																-502.33920	1134.35254	-983.95343	4.82311	964.88898	-1117.84619	-434.38184	1017.60333	-768.25519	-65.60881	916.72205	-1113.95496	-355.51767	895.20660	-1073.69910				-30.66474	476.34650	-1171.58289	-397.50137	467.30124	-1188.61743							
223	2.220	-409.63992	1483.62805	-946.87756	-315.26242	1694.82153	-997.47089				-300.09656	1399.79602	-888.35742																-507.11777	1133.57117	-990.80054	1.91379	964.51245	-1117.72656	-440.19348	1017.64532	-773.56067	-69.00862	916.59869	-1110.45813	-357.55115	894.46320	-1074.62549				-34.20313	475.92731	-1169.04858	-399.39185	467.29178	-1189.40344							
224	2.230	-412.65652	1484.49927	-947.81421	-317.86707	1695.13000	-998.53046				-303.70660	1401.64270	-888.91833																-512.34650	1132.51404	-997.02820	-1.58847	961.61829	-1116.57727	-445.56009	1018.04517	-779.97650	-72.59849	916.13293	-1107.21631	-360.71008	895.08221	-1075.61646				-37.56528	475.71338	-1165.51404	-401.20520	466.74048	-1189.57861							
